<svg xmlns="http://www.w3.org/2000/svg" xmlns:xlink="http://www.w3.org/1999/xlink"><symbol id="check" viewBox="0 0 24 24" fill="currentColor"><path d="m10 15.17 9.192-9.191 1.414 1.414L10 17.999l-6.364-6.364 1.414-1.414z"/></symbol><symbol id="close" viewBox="0 0 24 24" fill="currentColor"><path d="m12 10.587 4.95-4.95 1.414 1.414-4.95 4.95 4.95 4.95-1.415 1.414-4.95-4.95-4.949 4.95-1.414-1.415 4.95-4.95-4.95-4.95L7.05 5.638z"/></symbol><symbol id="customer" viewBox="0 0 512 512"><path fill="currentColor" d="M336 256c-20.56 0-40.44-9.18-56-25.84-15.13-16.25-24.37-37.92-26-61-1.74-24.62 5.77-47.26 21.14-63.76S312 80 336 80c23.83 0 45.38 9.06 60.7 25.52 15.47 16.62 23 39.22 21.26 63.63-1.67 23.11-10.9 44.77-26 61C376.44 246.82 356.57 256 336 256m131.83 176H204.18a27.71 27.71 0 0 1-22-10.67 30.22 30.22 0 0 1-5.26-25.79c8.42-33.81 29.28-61.85 60.32-81.08C264.79 297.4 299.86 288 336 288c36.85 0 71 9 98.71 26.05 31.11 19.13 52 47.33 60.38 81.55a30.27 30.27 0 0 1-5.32 25.78A27.68 27.68 0 0 1 467.83 432M147 260c-35.19 0-66.13-32.72-69-72.93-1.42-20.6 5-39.65 18-53.62 12.86-13.83 31-21.45 51-21.45s38 7.66 50.93 21.57c13.1 14.08 19.5 33.09 18 53.52-2.87 40.2-33.8 72.91-68.93 72.91m65.66 31.45c-17.59-8.6-40.42-12.9-65.65-12.9-29.46 0-58.07 7.68-80.57 21.62-25.51 15.83-42.67 38.88-49.6 66.71a27.39 27.39 0 0 0 4.79 23.36A25.32 25.32 0 0 0 41.72 400h111a8 8 0 0 0 7.87-6.57c.11-.63.25-1.26.41-1.88 8.48-34.06 28.35-62.84 57.71-83.82a8 8 0 0 0-.63-13.39c-1.57-.92-3.37-1.89-5.42-2.89"/></symbol><symbol id="github" viewBox="0 0 512 512" fill="currentColor"><path d="M256 32C132.3 32 32 134.9 32 261.7c0 101.5 64.2 187.5 153.2 217.9a17.6 17.6 0 0 0 3.8.4c8.3 0 11.5-6.1 11.5-11.4 0-5.5-.2-19.9-.3-39.1a102.4 102.4 0 0 1-22.6 2.7c-43.1 0-52.9-33.5-52.9-33.5-10.2-26.5-24.9-33.6-24.9-33.6-19.5-13.7-.1-14.1 1.4-14.1h.1c22.5 2 34.3 23.8 34.3 23.8 11.2 19.6 26.2 25.1 39.6 25.1a63 63 0 0 0 25.6-6c2-14.8 7.8-24.9 14.2-30.7-49.7-5.8-102-25.5-102-113.5 0-25.1 8.7-45.6 23-61.6-2.3-5.8-10-29.2 2.2-60.8a18.6 18.6 0 0 1 5-.5c8.1 0 26.4 3.1 56.6 24.1a208.2 208.2 0 0 1 112.2 0c30.2-21 48.5-24.1 56.6-24.1a18.6 18.6 0 0 1 5 .5c12.2 31.6 4.5 55 2.2 60.8 14.3 16.1 23 36.6 23 61.6 0 88.2-52.4 107.6-102.3 113.3 8 7.1 15.2 21.1 15.2 42.5 0 30.7-.3 55.5-.3 63 0 5.4 3.1 11.5 11.4 11.5a19.4 19.4 0 0 0 4-.4C415.9 449.2 480 363.1 480 261.7 480 134.9 379.7 32 256 32"/></symbol><symbol id="report" viewBox="0 0 48 48" fill="none"><path stroke="currentColor" stroke-linejoin="round" stroke-width="4" d="M44 5H4v12h40z"/><path stroke="currentColor" stroke-linecap="round" stroke-linejoin="round" stroke-width="4" d="m4 41.03 12.176-12.3 6.579 6.3L30.798 27l4.48 4.368"/><path stroke="currentColor" stroke-linecap="round" stroke-width="4" d="M44 16.172v26M4 16.172v14M13.016 43H44M17 11h21M10 10.997h1"/></symbol><symbol id="share" viewBox="0 0 48 48" fill="none"><path stroke="currentColor" stroke-linejoin="round" stroke-width="4" d="M35 16a5 5 0 1 0 0-10 5 5 0 0 0 0 10ZM13 29a5 5 0 1 0 0-10 5 5 0 0 0 0 10Z"/><path stroke="currentColor" stroke-linecap="round" stroke-linejoin="round" stroke-width="4" d="m30 13.575-12.66 7.67M17.339 26.564l13.34 7.883"/><path stroke="currentColor" stroke-linejoin="round" stroke-width="4" d="M35 32a5 5 0 1 1 0 10 5 5 0 0 1 0-10Z"/></symbol><symbol id="sun" viewBox="0 0 24 24" fill="currentColor"><path d="M12 18a6 6 0 1 1 0-12 6 6 0 0 1 0 12m0-2a4 4 0 1 0 0-8 4 4 0 0 0 0 8M11 1h2v3h-2zm0 19h2v3h-2zM3.515 4.929l1.414-1.414L7.05 5.636 5.636 7.05zM16.95 18.364l1.414-1.414 2.121 2.121-1.414 1.414zm2.121-14.85 1.414 1.415-2.121 2.121-1.414-1.414zM5.636 16.95l1.414 1.414-2.121 2.121-1.414-1.414zM23 11v2h-3v-2zM4 11v2H1v-2z"/></symbol><symbol id="todo-list" viewBox="0 0 48 48" fill="none"><path stroke="currentColor" stroke-linecap="round" stroke-linejoin="round" stroke-width="4" d="m5 10 3 3 6-6M5 24l3 3 6-6M5 38l3 3 6-6M21 24h22M21 38h22M21 10h22"/></symbol></svg>