<svg xmlns="http://www.w3.org/2000/svg" viewBox="0 0 48 48" stroke="currentColor" fill="none">
  <path d="M9 7h12M27 7h12" stroke-width="4" stroke-linecap="round" stroke-linejoin="round" />
  <path d="M19 36h-3a3 3 0 01-3-3v-9a8 8 0 018-8h6a8 8 0 018 8v9a3 3 0 01-3 3h-3" stroke-width="4"
    stroke-linejoin="round" />
  <circle cx="24" cy="7" r="3" stroke-width="4" />
  <path d="M29 35v1.4a1.6 1.6 0 01-1.6 1.6h-6.8a1.6 1.6 0 01-1.6-1.6V35a5 5 0 0110 0z" stroke-width="4"
    stroke-linecap="round" stroke-linejoin="round" />
  <path d="M21 38v3a3 3 0 106 0v-3" stroke-width="4" stroke-linejoin="round" />
</svg>